<mxfile host="app.diagrams.net" agent="Mozilla/5.0 (Windows NT 10.0; Win64; x64) AppleWebKit/537.36 (KHTML, like Gecko) Chrome/134.0.0.0 Safari/537.36 OPR/119.0.0.0" version="27.1.6">
  <diagram name="Pagina-1" id="0V4gxsG0Uc7V6atv6pii">
    <mxGraphModel dx="808" dy="441" grid="1" gridSize="12" guides="1" tooltips="1" connect="1" arrows="1" fold="1" page="1" pageScale="1" pageWidth="827" pageHeight="1169" math="0" shadow="0">
      <root>
        <mxCell id="0" />
        <mxCell id="1" parent="0" />
        <mxCell id="u3fZA9bNuohXF1SgQUcr-5" value=":ViewLogin" style="shape=umlLifeline;perimeter=lifelinePerimeter;whiteSpace=wrap;html=1;container=1;dropTarget=0;collapsible=0;recursiveResize=0;outlineConnect=0;portConstraint=eastwest;newEdgeStyle={&quot;curved&quot;:0,&quot;rounded&quot;:0};fillColor=#fa6800;fontColor=#000000;strokeColor=light-dark(#000000,#E96B12);fontSize=16;fontStyle=1;labelBorderColor=none;perimeterSpacing=0;gradientColor=none;fillStyle=solid;shadow=0;rounded=0;glass=0;strokeWidth=1;" vertex="1" parent="1">
          <mxGeometry x="144" y="384" width="100" height="228" as="geometry" />
        </mxCell>
        <mxCell id="u3fZA9bNuohXF1SgQUcr-4" value="" style="html=1;points=[[0,0,0,0,5],[0,1,0,0,-5],[1,0,0,0,5],[1,1,0,0,-5]];perimeter=orthogonalPerimeter;outlineConnect=0;targetShapes=umlLifeline;portConstraint=eastwest;newEdgeStyle={&quot;curved&quot;:0,&quot;rounded&quot;:0};fillColor=default;strokeColor=light-dark(#000000,#E96B12);" vertex="1" parent="u3fZA9bNuohXF1SgQUcr-5">
          <mxGeometry x="45" y="132" width="10" height="80" as="geometry" />
        </mxCell>
        <mxCell id="u3fZA9bNuohXF1SgQUcr-7" value=":Login" style="shape=umlLifeline;whiteSpace=wrap;html=1;container=1;dropTarget=0;collapsible=0;recursiveResize=0;outlineConnect=0;portConstraint=eastwest;newEdgeStyle={&quot;curved&quot;:0,&quot;rounded&quot;:0};fillColor=light-dark(#FA6800,#00CC00);fontColor=#000000;strokeColor=light-dark(#C73500,#00CC00);points=[[0,0,0,0,5],[0,1,0,0,-5],[1,0,0,0,5],[1,1,0,0,-5]];perimeter=rectanglePerimeter;targetShapes=umlLifeline;participant=label;fontStyle=1;fontSize=16;" vertex="1" parent="1">
          <mxGeometry x="336" y="384" width="100" height="564" as="geometry" />
        </mxCell>
        <mxCell id="u3fZA9bNuohXF1SgQUcr-8" value="" style="html=1;points=[[0,0,0,0,5],[0,1,0,0,-5],[1,0,0,0,5],[1,1,0,0,-5]];perimeter=orthogonalPerimeter;outlineConnect=0;targetShapes=umlLifeline;portConstraint=eastwest;newEdgeStyle={&quot;curved&quot;:0,&quot;rounded&quot;:0};strokeColor=light-dark(#000000,#00CC00);" vertex="1" parent="u3fZA9bNuohXF1SgQUcr-7">
          <mxGeometry x="45" y="132" width="10" height="120" as="geometry" />
        </mxCell>
        <mxCell id="u3fZA9bNuohXF1SgQUcr-9" value=":Logger" style="shape=umlLifeline;whiteSpace=wrap;html=1;container=1;dropTarget=0;collapsible=0;recursiveResize=0;outlineConnect=0;portConstraint=eastwest;newEdgeStyle={&quot;curved&quot;:0,&quot;rounded&quot;:0};fillColor=light-dark(#FA6800,#3399FF);fontColor=#000000;strokeColor=light-dark(#C73500,#3399FF);points=[[0,0,0,0,5],[0,1,0,0,-5],[1,0,0,0,5],[1,1,0,0,-5]];perimeter=rectanglePerimeter;targetShapes=umlLifeline;participant=label;fontStyle=1;fontSize=16;" vertex="1" parent="1">
          <mxGeometry x="588" y="480" width="112" height="156" as="geometry" />
        </mxCell>
        <mxCell id="u3fZA9bNuohXF1SgQUcr-11" value="verificaCredenziali()" style="endArrow=block;endFill=1;html=1;edgeStyle=orthogonalEdgeStyle;align=left;verticalAlign=top;rounded=0;" edge="1" parent="1" source="u3fZA9bNuohXF1SgQUcr-4" target="u3fZA9bNuohXF1SgQUcr-8">
          <mxGeometry x="-0.6813" y="12" relative="1" as="geometry">
            <mxPoint x="204" y="516" as="sourcePoint" />
            <mxPoint x="364" y="516" as="targetPoint" />
            <Array as="points">
              <mxPoint x="288" y="516" />
              <mxPoint x="288" y="516" />
            </Array>
            <mxPoint as="offset" />
          </mxGeometry>
        </mxCell>
        <mxCell id="u3fZA9bNuohXF1SgQUcr-13" value="" style="endArrow=open;dashed=1;endFill=0;endSize=12;html=1;rounded=0;entryX=1;entryY=1;entryDx=0;entryDy=-5;entryPerimeter=0;" edge="1" parent="1" source="u3fZA9bNuohXF1SgQUcr-8" target="u3fZA9bNuohXF1SgQUcr-4">
          <mxGeometry width="160" relative="1" as="geometry">
            <mxPoint x="192" y="552" as="sourcePoint" />
            <mxPoint x="276" y="600" as="targetPoint" />
          </mxGeometry>
        </mxCell>
        <mxCell id="u3fZA9bNuohXF1SgQUcr-14" value="Close()" style="edgeLabel;html=1;align=center;verticalAlign=middle;resizable=0;points=[];rotation=0;fontSize=12;" vertex="1" connectable="0" parent="u3fZA9bNuohXF1SgQUcr-13">
          <mxGeometry x="0.5421" y="2" relative="1" as="geometry">
            <mxPoint x="47" y="3" as="offset" />
          </mxGeometry>
        </mxCell>
        <mxCell id="u3fZA9bNuohXF1SgQUcr-15" value="&lt;span style=&quot;white-space: pre;&quot;&gt;&#x9;&lt;/span&gt;&amp;nbsp;verifica()" style="endArrow=block;endFill=1;html=1;edgeStyle=orthogonalEdgeStyle;align=left;verticalAlign=top;rounded=0;exitX=1;exitY=0;exitDx=0;exitDy=5;exitPerimeter=0;" edge="1" parent="1" source="u3fZA9bNuohXF1SgQUcr-8">
          <mxGeometry x="-0.8132" y="24" relative="1" as="geometry">
            <mxPoint x="492" y="516" as="sourcePoint" />
            <mxPoint x="504" y="516" as="targetPoint" />
            <Array as="points">
              <mxPoint x="391" y="516" />
            </Array>
            <mxPoint as="offset" />
          </mxGeometry>
        </mxCell>
        <mxCell id="u3fZA9bNuohXF1SgQUcr-16" value="" style="ellipse;html=1;shape=endState;fillColor=light-dark(#000000,#282828);strokeColor=light-dark(#FF0000,#282828);" vertex="1" parent="1">
          <mxGeometry x="504" y="504" width="30" height="30" as="geometry" />
        </mxCell>
        <mxCell id="u3fZA9bNuohXF1SgQUcr-17" value="" style="endArrow=block;dashed=1;endFill=0;endSize=12;html=1;rounded=0;exitX=0.5;exitY=1;exitDx=0;exitDy=0;" edge="1" parent="1" source="u3fZA9bNuohXF1SgQUcr-16">
          <mxGeometry width="160" relative="1" as="geometry">
            <mxPoint x="519" y="552" as="sourcePoint" />
            <mxPoint x="391" y="552" as="targetPoint" />
            <Array as="points">
              <mxPoint x="519" y="552" />
            </Array>
          </mxGeometry>
        </mxCell>
        <mxCell id="u3fZA9bNuohXF1SgQUcr-18" value="roleName" style="edgeLabel;html=1;align=center;verticalAlign=middle;resizable=0;points=[];rotation=0;fontSize=12;" vertex="1" connectable="0" parent="u3fZA9bNuohXF1SgQUcr-17">
          <mxGeometry x="0.5421" y="2" relative="1" as="geometry">
            <mxPoint x="47" y="3" as="offset" />
          </mxGeometry>
        </mxCell>
        <mxCell id="u3fZA9bNuohXF1SgQUcr-25" value="scrivi()" style="endArrow=block;endFill=1;html=1;edgeStyle=orthogonalEdgeStyle;align=left;verticalAlign=top;rounded=0;" edge="1" parent="1" target="u3fZA9bNuohXF1SgQUcr-9">
          <mxGeometry x="-0.1099" y="9" relative="1" as="geometry">
            <mxPoint x="391" y="585" as="sourcePoint" />
            <mxPoint x="588.0000000000002" y="576" as="targetPoint" />
            <Array as="points">
              <mxPoint x="490" y="585" />
              <mxPoint x="490" y="588" />
            </Array>
            <mxPoint as="offset" />
          </mxGeometry>
        </mxCell>
        <mxCell id="u3fZA9bNuohXF1SgQUcr-27" value="" style="endArrow=open;dashed=1;endFill=0;endSize=12;html=1;rounded=0;" edge="1" parent="1" target="u3fZA9bNuohXF1SgQUcr-8">
          <mxGeometry width="160" relative="1" as="geometry">
            <mxPoint x="588" y="624" as="sourcePoint" />
            <mxPoint x="406" y="624" as="targetPoint" />
          </mxGeometry>
        </mxCell>
        <mxCell id="u3fZA9bNuohXF1SgQUcr-29" value="Alt" style="shape=umlFrame;whiteSpace=wrap;html=1;pointerEvents=0;" vertex="1" parent="1">
          <mxGeometry x="348" y="780" width="576" height="200" as="geometry" />
        </mxCell>
        <mxCell id="u3fZA9bNuohXF1SgQUcr-30" value=":HomeAreaPersonale" style="shape=umlLifeline;whiteSpace=wrap;html=1;container=1;dropTarget=0;collapsible=0;recursiveResize=0;outlineConnect=0;portConstraint=eastwest;newEdgeStyle={&quot;curved&quot;:0,&quot;rounded&quot;:0};fillColor=#fa6800;fontColor=#000000;strokeColor=#C73500;points=[[0,0,0,0,5],[0,1,0,0,-5],[1,0,0,0,5],[1,1,0,0,-5]];perimeter=rectanglePerimeter;targetShapes=umlLifeline;participant=label;fontStyle=1;fontSize=16;" vertex="1" parent="1">
          <mxGeometry x="562" y="720" width="170" height="132" as="geometry" />
        </mxCell>
        <mxCell id="u3fZA9bNuohXF1SgQUcr-31" value=":HomePannelloControllo" style="shape=umlLifeline;whiteSpace=wrap;html=1;container=1;dropTarget=0;collapsible=0;recursiveResize=0;outlineConnect=0;portConstraint=eastwest;newEdgeStyle={&quot;curved&quot;:0,&quot;rounded&quot;:0};fillColor=#fa6800;fontColor=#000000;strokeColor=#C73500;points=[[0,0,0,0,5],[0,1,0,0,-5],[1,0,0,0,5],[1,1,0,0,-5]];perimeter=rectanglePerimeter;targetShapes=umlLifeline;participant=label;fontStyle=1;fontSize=16;" vertex="1" parent="1">
          <mxGeometry x="761" y="720" width="204" height="228" as="geometry" />
        </mxCell>
        <mxCell id="u3fZA9bNuohXF1SgQUcr-33" value="roleName: UtenteRegistrato" style="text;align=center;fontStyle=1;verticalAlign=middle;spacingLeft=3;spacingRight=3;strokeColor=none;rotatable=0;points=[[0,0.5],[1,0.5]];portConstraint=eastwest;html=1;fontSize=9;" vertex="1" parent="1">
          <mxGeometry x="408" y="816" width="80" height="26" as="geometry" />
        </mxCell>
        <mxCell id="u3fZA9bNuohXF1SgQUcr-34" value="roleName: EnteLocale" style="text;align=center;fontStyle=1;verticalAlign=middle;spacingLeft=3;spacingRight=3;strokeColor=none;rotatable=0;points=[[0,0.5],[1,0.5]];portConstraint=eastwest;html=1;fontSize=9;" vertex="1" parent="1">
          <mxGeometry x="408" y="900" width="80" height="26" as="geometry" />
        </mxCell>
        <mxCell id="u3fZA9bNuohXF1SgQUcr-35" value="show" style="endArrow=open;endFill=0;html=1;edgeStyle=orthogonalEdgeStyle;align=left;verticalAlign=top;rounded=0;" edge="1" parent="1">
          <mxGeometry x="-0.2727" y="12" relative="1" as="geometry">
            <mxPoint x="387" y="852" as="sourcePoint" />
            <mxPoint x="648" y="852" as="targetPoint" />
            <mxPoint as="offset" />
          </mxGeometry>
        </mxCell>
        <mxCell id="u3fZA9bNuohXF1SgQUcr-38" value="show" style="endArrow=open;endFill=0;html=1;edgeStyle=orthogonalEdgeStyle;align=left;verticalAlign=top;rounded=0;" edge="1" parent="1">
          <mxGeometry x="-0.2727" y="12" relative="1" as="geometry">
            <mxPoint x="387" y="947.67" as="sourcePoint" />
            <mxPoint x="864" y="948" as="targetPoint" />
            <mxPoint as="offset" />
          </mxGeometry>
        </mxCell>
      </root>
    </mxGraphModel>
  </diagram>
</mxfile>
